<svg width="19" height="19" viewBox="0 0 19 19" fill="none" xmlns="http://www.w3.org/2000/svg">
<path d="M13.7386 10.3H10.2V8.7H15.55V8.73112H16.25H16.2557C16.2848 8.98398 16.3 9.24046 16.3 9.5C16.3 13.2553 13.2553 16.3 9.5 16.3C5.74472 16.3 2.7 13.2553 2.7 9.5C2.7 5.74472 5.74472 2.7 9.5 2.7C11.0285 2.7 12.4359 3.20818 13.572 4.063L12.4276 5.20741C11.5951 4.63696 10.5878 4.3 9.5 4.3C6.62828 4.3 4.3 6.62828 4.3 9.5C4.3 12.3717 6.62828 14.7 9.5 14.7C11.7658 14.7 13.6847 13.2494 14.3985 11.2336L14.7291 10.3H13.7386Z" fill="#FFC107" stroke="#FDFDFD" stroke-width="1.4"/>
<path d="M2.86475 6.00912L5.32887 7.81625C5.99562 6.1655 7.61037 5 9.5 5C10.6471 5 11.6907 5.43275 12.4854 6.13962L14.6067 4.01825C13.2672 2.76987 11.4755 2 9.5 2C6.61925 2 4.121 3.62637 2.86475 6.00912Z" fill="#FF3D00"/>
<path d="M9.49999 17C11.4372 17 13.1975 16.2586 14.5284 15.053L12.2071 13.0888C11.4288 13.6807 10.4778 14.0008 9.49999 14C7.54924 14 5.89287 12.7561 5.26887 11.0203L2.82312 12.9046C4.06437 15.3335 6.58512 17 9.49999 17Z" fill="#4CAF50"/>
<path d="M16.8541 8.03113H16.25V8H9.5V11H13.7386C13.4428 11.8312 12.91 12.5574 12.206 13.0891L12.2071 13.0884L14.5284 15.0526C14.3641 15.2019 17 13.25 17 9.5C17 8.99713 16.9483 8.50625 16.8541 8.03113Z" fill="#1976D2"/>
</svg>
