<svg width="26" height="26" viewBox="0 0 26 26" fill="none" xmlns="http://www.w3.org/2000/svg">
<path fill-rule="evenodd" clip-rule="evenodd" d="M3.44364 11.7489C9.08077 9.20867 12.8397 7.534 14.7206 6.72489C20.0907 4.4147 21.2065 4.01339 21.9338 4.00014C22.0938 3.99723 22.4514 4.03823 22.6831 4.23267C22.8787 4.39685 22.9326 4.61863 22.9583 4.77429C22.9841 4.92995 23.0162 5.28455 22.9907 5.56163C22.6997 8.7241 21.4405 16.3986 20.7999 19.9406C20.5288 21.4394 19.9951 21.9419 19.4784 21.9911C18.3554 22.098 17.5027 21.2235 16.4151 20.4861C14.7132 19.3323 13.7517 18.614 12.0997 17.488C10.1906 16.1868 11.4282 15.4716 12.5162 14.3027C12.801 13.9969 17.7486 9.34226 17.8444 8.92001C17.8564 8.86721 17.8675 8.67036 17.7544 8.56642C17.6414 8.46248 17.4745 8.49802 17.3541 8.52629C17.1834 8.56636 14.4646 10.425 9.19761 14.1022C8.42588 14.6503 7.72687 14.9174 7.10058 14.9034C6.41015 14.888 5.08204 14.4996 4.09473 14.1677C2.88374 13.7606 1.92128 13.5453 2.00509 12.8539C2.04874 12.4937 2.52826 12.1254 3.44364 11.7489Z" fill="#FDFDFD"/>
</svg>
