<svg width="19" height="19" viewBox="0 0 19 19" fill="none" xmlns="http://www.w3.org/2000/svg">
<g clip-path="url(#clip0_2028_72)">
<circle cx="9.5" cy="9.5" r="10" fill="#EC1111"/>
<path d="M12.4508 10.5801V10.4352V9.88008V3.77148V3.2H12.8V15.8H12.4508V11.1352V10.5801ZM8.38505 9.75187C8.80908 10.1416 9.316 10.3674 9.84645 10.4822L9.67506 10.8136L7.09617 15.8H6.66452L9.1658 11.0917L9.52018 10.4246L8.82811 10.1219C8.20305 9.84857 7.7252 9.48403 7.39873 8.9964C7.07306 8.50997 6.86032 7.84479 6.86032 6.90508L6.86032 6.90432C6.85893 5.62317 7.32199 4.72368 8.01368 4.13394C8.26998 3.91542 8.56597 3.7326 8.89434 3.58831C8.72796 3.69281 8.56865 3.81525 8.41915 3.95744C7.72887 4.61401 7.34286 5.60095 7.34286 6.90508C7.34286 8.15851 7.6944 9.11711 8.38505 9.75187Z" fill="white" stroke="#FDFDFD" stroke-width="1.4"/>
</g>
<defs>
<clipPath id="clip0_2028_72">
<rect width="18" height="18" fill="white" transform="translate(0.5 0.5)"/>
</clipPath>
</defs>
</svg>
